<svg xmlns="http://www.w3.org/2000/svg" width="1800" height="1180" viewBox="0 0 1800 1180"><rect x="0" y="0" width="1800" height="1180" fill="#f8fbfe"/><text x="60" y="72" font-family="Microsoft YaHei, SimHei, sans-serif" font-size="36" font-weight="700" fill="#16324c"><tspan x="60" dy="0">学生端与平台服务架构图</tspan></text><text x="60" y="118" font-family="Microsoft YaHei, SimHei, sans-serif" font-size="22" font-weight="400" fill="#556676"><tspan x="60" dy="0">图示从访问入口、统一门户、核心服务到知识资产与数据能力，展示学生端各功能模块的协同方式。</tspan></text><g><rect x="120" y="170" width="1560" height="150" rx="24" ry="24" fill="#ffffff" stroke="#345670" stroke-width="3"/><path d="M 144 170 H 1656 A 24 24 0 0 1 1680 194 V 222 H 120 V 194 A 24 24 0 0 1 144 170 Z" fill="#235a8c"/><rect x="120" y="198" width="1560" height="24" fill="#235a8c"/><text x="138" y="204" font-family="Microsoft YaHei, SimHei, sans-serif" font-size="24" font-weight="700" fill="#ffffff"><tspan x="138" dy="0">一、学生访问层</tspan></text><text x="138" y="258" font-family="Microsoft YaHei, SimHei, sans-serif" font-size="19" font-weight="400" fill="#202020"><tspan x="138" dy="0">登录注册   智能问答   练习测评   学习报告   历史对话</tspan></text></g><g><rect x="120" y="390" width="1560" height="150" rx="24" ry="24" fill="#ffffff" stroke="#345670" stroke-width="3"/><path d="M 144 390 H 1656 A 24 24 0 0 1 1680 414 V 442 H 120 V 414 A 24 24 0 0 1 144 390 Z" fill="#235a8c"/><rect x="120" y="418" width="1560" height="24" fill="#235a8c"/><text x="138" y="424" font-family="Microsoft YaHei, SimHei, sans-serif" font-size="24" font-weight="700" fill="#ffffff"><tspan x="138" dy="0">二、统一门户与业务编排层</tspan></text><text x="138" y="478" font-family="Microsoft YaHei, SimHei, sans-serif" font-size="19" font-weight="400" fill="#202020"><tspan x="138" dy="0">负责身份校验、页面路由、会话管理、题目提交、来源跳转与结果聚合</tspan><tspan x="138" dy="27">将不同功能模块组织为统一课程学习入口</tspan></text></g><g><rect x="120" y="620" width="440" height="230" rx="24" ry="24" fill="#ffffff" stroke="#345670" stroke-width="3"/><path d="M 144 620 H 536 A 24 24 0 0 1 560 644 V 672 H 120 V 644 A 24 24 0 0 1 144 620 Z" fill="#2f7466"/><rect x="120" y="648" width="440" height="24" fill="#2f7466"/><text x="138" y="654" font-family="Microsoft YaHei, SimHei, sans-serif" font-size="24" font-weight="700" fill="#ffffff"><tspan x="138" dy="0">三、智能问答服务</tspan></text><text x="138" y="708" font-family="Microsoft YaHei, SimHei, sans-serif" font-size="19" font-weight="400" fill="#202020"><tspan x="138" dy="0">结合会话上下文解析问题</tspan><tspan x="138" dy="27">检索课程片段并组织证据</tspan><tspan x="138" dy="27">调用模型生成答案与引用</tspan></text></g><g><rect x="680" y="620" width="440" height="230" rx="24" ry="24" fill="#ffffff" stroke="#345670" stroke-width="3"/><path d="M 704 620 H 1096 A 24 24 0 0 1 1120 644 V 672 H 680 V 644 A 24 24 0 0 1 704 620 Z" fill="#2f7466"/><rect x="680" y="648" width="440" height="24" fill="#2f7466"/><text x="698" y="654" font-family="Microsoft YaHei, SimHei, sans-serif" font-size="24" font-weight="700" fill="#ffffff"><tspan x="698" dy="0">四、练习测评服务</tspan></text><text x="698" y="708" font-family="Microsoft YaHei, SimHei, sans-serif" font-size="19" font-weight="400" fill="#202020"><tspan x="698" dy="0">按知识点组题并展示题目</tspan><tspan x="698" dy="27">自动判分并记录作答结果</tspan><tspan x="698" dy="27">形成错题与复习定位信息</tspan></text></g><g><rect x="1240" y="620" width="440" height="230" rx="24" ry="24" fill="#ffffff" stroke="#345670" stroke-width="3"/><path d="M 1264 620 H 1656 A 24 24 0 0 1 1680 644 V 672 H 1240 V 644 A 24 24 0 0 1 1264 620 Z" fill="#2f7466"/><rect x="1240" y="648" width="440" height="24" fill="#2f7466"/><text x="1258" y="654" font-family="Microsoft YaHei, SimHei, sans-serif" font-size="24" font-weight="700" fill="#ffffff"><tspan x="1258" dy="0">五、学习分析服务</tspan></text><text x="1258" y="708" font-family="Microsoft YaHei, SimHei, sans-serif" font-size="19" font-weight="400" fill="#202020"><tspan x="1258" dy="0">汇总最近作答情况</tspan><tspan x="1258" dy="27">识别强项、弱项与覆盖情况</tspan><tspan x="1258" dy="27">生成复习建议与推荐练习</tspan></text></g><g><rect x="120" y="940" width="800" height="190" rx="24" ry="24" fill="#ffffff" stroke="#345670" stroke-width="3"/><path d="M 144 940 H 896 A 24 24 0 0 1 920 964 V 992 H 120 V 964 A 24 24 0 0 1 144 940 Z" fill="#235a8c"/><rect x="120" y="968" width="800" height="24" fill="#235a8c"/><text x="138" y="974" font-family="Microsoft YaHei, SimHei, sans-serif" font-size="24" font-weight="700" fill="#ffffff"><tspan x="138" dy="0">六、课程知识资产层</tspan></text><text x="138" y="1028" font-family="Microsoft YaHei, SimHei, sans-serif" font-size="19" font-weight="400" fill="#202020"><tspan x="138" dy="0">课程 PDF、知识点、题库与讲义图像资源</tspan><tspan x="138" dy="27">当前知识点数量：13；向量检索单元：1206</tspan></text></g><g><rect x="960" y="940" width="720" height="190" rx="24" ry="24" fill="#ffffff" stroke="#345670" stroke-width="3"/><path d="M 984 940 H 1656 A 24 24 0 0 1 1680 964 V 992 H 960 V 964 A 24 24 0 0 1 984 940 Z" fill="#763a82"/><rect x="960" y="968" width="720" height="24" fill="#763a82"/><text x="978" y="974" font-family="Microsoft YaHei, SimHei, sans-serif" font-size="24" font-weight="700" fill="#ffffff"><tspan x="978" dy="0">七、数据存储与模型能力层</tspan></text><text x="978" y="1028" font-family="Microsoft YaHei, SimHei, sans-serif" font-size="19" font-weight="400" fill="#202020"><tspan x="978" dy="0">保存用户、会话、作答记录、报告快照与任务状态</tspan><tspan x="978" dy="27">对接嵌入模型与大语言模型，支撑检索增强问答与学习分析</tspan></text></g><g><line x1="900" y1="320" x2="900" y2="390" stroke="#0c6aa6" stroke-width="5" stroke-linecap="round"/><polygon points="900,390 893.5,376.5 906.5,376.5" fill="#0c6aa6"/></g><g><line x1="900" y1="540" x2="340" y2="620" stroke="#0c6aa6" stroke-width="5" stroke-linecap="round"/><polygon points="340,620 352.5,611.6 354.3,624.5" fill="#0c6aa6"/></g><g><line x1="900" y1="540" x2="900" y2="620" stroke="#0c6aa6" stroke-width="5" stroke-linecap="round"/><polygon points="900,620 893.5,606.5 906.5,606.5" fill="#0c6aa6"/></g><g><line x1="900" y1="540" x2="1460" y2="620" stroke="#0c6aa6" stroke-width="5" stroke-linecap="round"/><polygon points="1460,620 1445.7,624.5 1447.5,611.6" fill="#0c6aa6"/></g><g><line x1="340" y1="850" x2="520" y2="940" stroke="#0c6aa6" stroke-width="5" stroke-linecap="round"/><polygon points="520,940 505.0,939.8 510.8,928.1" fill="#0c6aa6"/></g><g><line x1="900" y1="850" x2="900" y2="940" stroke="#0c6aa6" stroke-width="5" stroke-linecap="round"/><polygon points="900,940 893.5,926.5 906.5,926.5" fill="#0c6aa6"/></g><g><line x1="1460" y1="850" x2="1320" y2="940" stroke="#0c6aa6" stroke-width="5" stroke-linecap="round"/><polygon points="1320,940 1327.8,927.2 1334.9,938.2" fill="#0c6aa6"/></g></svg>