<svg xmlns="http://www.w3.org/2000/svg" width="1600" height="940" viewBox="40 40 1660 920"><rect x="0" y="0" width="1750" height="980" fill="#f8fbfe"/><text x="60" y="72" font-family="Microsoft YaHei, SimHei, sans-serif" font-size="50" font-weight="700" fill="#16324c"><tspan x="60" dy="0">教师侧内容生产与知识服务流程图</tspan></text><text x="60" y="118" font-family="Microsoft YaHei, SimHei, sans-serif" font-size="31" font-weight="400" fill="#556676"><tspan x="60" dy="0">从课程资料接入、内容处理、知识组织到发布和更新，展示教师侧的完整工作链路。</tspan></text><g><rect x="70" y="170" width="300" height="180" rx="24" ry="24" fill="#ffffff" stroke="#345670" stroke-width="3"/><path d="M 94 170 H 346 A 24 24 0 0 1 370 194 V 222 H 70 V 194 A 24 24 0 0 1 94 170 Z" fill="#235a8c"/><rect x="70" y="198" width="300" height="24" fill="#235a8c"/><text x="88" y="204" font-family="Microsoft YaHei, SimHei, sans-serif" font-size="32" font-weight="700" fill="#ffffff"><tspan x="88" dy="0">资料接入</tspan></text><text x="88" y="258" font-family="Microsoft YaHei, SimHei, sans-serif" font-size="26" font-weight="400" fill="#202020"><tspan x="88" dy="0">课件、教材、参考讲义</tspan><tspan x="88" dy="30">统一导入课程资源池</tspan></text></g><g><rect x="430" y="170" width="330" height="180" rx="24" ry="24" fill="#ffffff" stroke="#345670" stroke-width="3"/><path d="M 454 170 H 736 A 24 24 0 0 1 760 194 V 222 H 430 V 194 A 24 24 0 0 1 454 170 Z" fill="#235a8c"/><rect x="430" y="198" width="330" height="24" fill="#235a8c"/><text x="448" y="204" font-family="Microsoft YaHei, SimHei, sans-serif" font-size="32" font-weight="700" fill="#ffffff"><tspan x="448" dy="0">内容清洗</tspan></text><text x="448" y="258" font-family="Microsoft YaHei, SimHei, sans-serif" font-size="26" font-weight="400" fill="#202020"><tspan x="448" dy="0">抽取文本、标题、页码与图像位置</tspan><tspan x="448" dy="30">清理噪声并保留来源关系</tspan></text></g><g><rect x="820" y="170" width="330" height="180" rx="24" ry="24" fill="#ffffff" stroke="#345670" stroke-width="3"/><path d="M 844 170 H 1126 A 24 24 0 0 1 1150 194 V 222 H 820 V 194 A 24 24 0 0 1 844 170 Z" fill="#235a8c"/><rect x="820" y="198" width="330" height="24" fill="#235a8c"/><text x="838" y="204" font-family="Microsoft YaHei, SimHei, sans-serif" font-size="32" font-weight="700" fill="#ffffff"><tspan x="838" dy="0">知识组织</tspan></text><text x="838" y="258" font-family="Microsoft YaHei, SimHei, sans-serif" font-size="26" font-weight="400" fill="#202020"><tspan x="838" dy="0">形成知识点、关键词与页码映射</tspan><tspan x="838" dy="30">构建课程知识骨架</tspan></text></g><g><rect x="1210" y="170" width="470" height="180" rx="24" ry="24" fill="#ffffff" stroke="#345670" stroke-width="3"/><path d="M 1234 170 H 1656 A 24 24 0 0 1 1680 194 V 222 H 1210 V 194 A 24 24 0 0 1 1234 170 Z" fill="#235a8c"/><rect x="1210" y="198" width="470" height="24" fill="#235a8c"/><text x="1228" y="204" font-family="Microsoft YaHei, SimHei, sans-serif" font-size="32" font-weight="700" fill="#ffffff"><tspan x="1228" dy="0">知识库与题库生成</tspan></text><text x="1228" y="258" font-family="Microsoft YaHei, SimHei, sans-serif" font-size="26" font-weight="400" fill="#202020"><tspan x="1228" dy="0">形成 1206 条课程知识片段</tspan><tspan x="1228" dy="30">形成 78 道练习题</tspan></text></g><g><rect x="150" y="470" width="450" height="220" rx="24" ry="24" fill="#ffffff" stroke="#345670" stroke-width="3"/><path d="M 174 470 H 576 A 24 24 0 0 1 600 494 V 522 H 150 V 494 A 24 24 0 0 1 174 470 Z" fill="#2f7466"/><rect x="150" y="498" width="450" height="24" fill="#2f7466"/><text x="168" y="504" font-family="Microsoft YaHei, SimHei, sans-serif" font-size="32" font-weight="700" fill="#ffffff"><tspan x="168" dy="0">审核与修订</tspan></text><text x="168" y="558" font-family="Microsoft YaHei, SimHei, sans-serif" font-size="26" font-weight="400" fill="#202020"><tspan x="168" dy="0">人工抽检知识点与题目质量</tspan><tspan x="168" dy="30">调整来源定位与内容边界</tspan></text></g><g><rect x="690" y="470" width="400" height="220" rx="24" ry="24" fill="#ffffff" stroke="#345670" stroke-width="3"/><path d="M 714 470 H 1066 A 24 24 0 0 1 1090 494 V 522 H 690 V 494 A 24 24 0 0 1 714 470 Z" fill="#2f7466"/><rect x="690" y="498" width="400" height="24" fill="#2f7466"/><text x="708" y="504" font-family="Microsoft YaHei, SimHei, sans-serif" font-size="32" font-weight="700" fill="#ffffff"><tspan x="708" dy="0">发布到学生端</tspan></text><text x="708" y="558" font-family="Microsoft YaHei, SimHei, sans-serif" font-size="26" font-weight="400" fill="#202020"><tspan x="708" dy="0">同步问答、练习和学习报告</tspan><tspan x="708" dy="30">支撑前端可视化页面展示</tspan></text></g><g><rect x="1180" y="470" width="440" height="220" rx="24" ry="24" fill="#ffffff" stroke="#345670" stroke-width="3"/><path d="M 1204 470 H 1596 A 24 24 0 0 1 1620 494 V 522 H 1180 V 494 A 24 24 0 0 1 1204 470 Z" fill="#763a82"/><rect x="1180" y="498" width="440" height="24" fill="#763a82"/><text x="1198" y="504" font-family="Microsoft YaHei, SimHei, sans-serif" font-size="32" font-weight="700" fill="#ffffff"><tspan x="1198" dy="0">持续更新</tspan></text><text x="1198" y="558" font-family="Microsoft YaHei, SimHei, sans-serif" font-size="26" font-weight="400" fill="#202020"><tspan x="1198" dy="0">新增课件后重新构建知识库</tspan><tspan x="1198" dy="30">保持课程内容与教学进度一致</tspan></text></g><g><rect x="500" y="748" width="860" height="170" rx="24" ry="24" fill="#ffffff" stroke="#345670" stroke-width="3"/><path d="M 524 748 H 1336 A 24 24 0 0 1 1360 772 V 800 H 500 V 772 A 24 24 0 0 1 524 748 Z" fill="#763a82"/><rect x="500" y="776" width="860" height="24" fill="#763a82"/><text x="518" y="782" font-family="Microsoft YaHei, SimHei, sans-serif" font-size="32" font-weight="700" fill="#ffffff"><tspan x="518" dy="0">管理要点</tspan></text><text x="518" y="836" font-family="Microsoft YaHei, SimHei, sans-serif" font-size="24" font-weight="400" fill="#202020"><tspan x="518" dy="0">教师侧以内容生产和审核为主，不强调独立入口界面，</tspan><tspan x="518" dy="28">而是通过后台流程完成课程资源沉淀、题库发布与知识库更新。</tspan></text></g><g><line x1="370" y1="260" x2="430" y2="260" stroke="#0c6aa6" stroke-width="5" stroke-linecap="round"/><polygon points="430,260 416.5,266.5 416.5,253.5" fill="#0c6aa6"/></g><g><line x1="760" y1="260" x2="820" y2="260" stroke="#0c6aa6" stroke-width="5" stroke-linecap="round"/><polygon points="820,260 806.5,266.5 806.5,253.5" fill="#0c6aa6"/></g><g><line x1="1150" y1="260" x2="1210" y2="260" stroke="#0c6aa6" stroke-width="5" stroke-linecap="round"/><polygon points="1210,260 1196.5,266.5 1196.5,253.5" fill="#0c6aa6"/></g><g><line x1="980" y1="350" x2="980" y2="470" stroke="#0c6aa6" stroke-width="5" stroke-linecap="round"/><polygon points="980,470 973.5,456.5 986.5,456.5" fill="#0c6aa6"/></g><g><line x1="600" y1="580" x2="690" y2="580" stroke="#0c6aa6" stroke-width="5" stroke-linecap="round"/><polygon points="690,580 676.5,586.5 676.5,573.5" fill="#0c6aa6"/></g><g><line x1="1090" y1="580" x2="1180" y2="580" stroke="#0c6aa6" stroke-width="5" stroke-linecap="round"/><polygon points="1180,580 1166.5,586.5 1166.5,573.5" fill="#0c6aa6"/></g><g><line x1="1400" y1="690" x2="930" y2="748" stroke="#0c6aa6" stroke-width="5" stroke-linecap="round"/><polygon points="930,748 943.8,741.3 945.4,754.2" fill="#0c6aa6"/></g></svg>
